Coordinates
version=1
nRows=12
nColumns=34
inDegrees=yes

Units are S.I. units (second, meters, Newtons, ...)
If the header above contains a line with 'inDegrees', this indicates whether rotational values are in degrees (yes) or radians (no).

endheader
time	pelvis_tilt	pelvis_list	pelvis_rotation	pelvis_tx	pelvis_ty	pelvis_tz	hip_flexion_r	hip_adduction_r	hip_rotation_r	knee_angle_r	ankle_angle_r	subtalar_angle_r	mtp_angle_r	hip_flexion_l	hip_adduction_l	hip_rotation_l	knee_angle_l	ankle_angle_l	subtalar_angle_l	mtp_angle_l	lumbar_extension	lumbar_bending	lumbar_rotation	arm_flex_r	arm_add_r	arm_rot_r	elbow_flex_r	pro_sup_r	arm_flex_l	arm_add_l	arm_rot_l	elbow_flex_l	pro_sup_l
      0.00000000	     -1.69511358	     -1.34204935	      7.73678746	     -1.89447137	      0.95992067	      0.22118553	     -1.01780431	     -0.11294819	     -6.41632547	      4.03591548	      3.70484663	     -8.79510496	      0.00000000	      0.38644570	     -4.12189015	    -19.78523283	      0.00000000	      0.10385996	     -6.48695171	      0.00000000	     -2.57714468	      2.25471232	     -4.87760118	      6.41084445	     -8.08345580	     18.95775762	     20.40659894	     77.86038905	     -0.13124927	    -10.52569173	     21.77887500	     19.27466113	     59.48919260
      0.01666670	     -3.54870328	     -1.79832998	      7.21978609	     -1.89295811	      0.95547112	      0.21948629	      0.34064796	      0.10237152	     -8.31829136	      2.55740734	      5.34498377	     -3.55752755	      0.00000000	      2.49969941	     -3.94318372	    -26.29044595	      0.00000000	      2.86148101	     -1.21340149	      0.00000000	      0.92035573	      2.43812441	     -4.24617052	      5.91012601	     -7.67720490	     15.76723676	     18.62012615	     77.03827926	     -0.13847639	     -9.24459931	     19.66002418	     16.70607388	     59.39784619
      0.03333330	     -4.12937033	     -1.64035140	      6.64548730	     -1.89253454	      0.95438577	      0.22023450	      0.36513813	      0.09516364	     -8.94903441	      1.31871768	      5.20518612	     -2.25259812	      0.00000000	      3.04110641	     -3.81888370	    -29.09110650	      0.00000000	      3.44932530	      2.01915936	      0.00000000	      2.02163684	      1.82479107	     -3.41674976	      4.98705737	     -6.97929398	     11.23517116	     18.97659824	     75.76117799	      0.10409231	     -9.11810344	     17.03825930	     15.78335901	     59.43189096
      0.05000000	     -4.39925315	     -1.46047669	      6.49377485	     -1.89272208	      0.95338895	      0.22043107	      0.29554259	     -0.05934677	     -9.64004783	      0.46336979	      5.93698416	     -0.30763298	      0.00000000	      3.31409673	     -3.73589846	    -30.49384625	      0.00000000	      3.64321297	      3.67239231	      0.00000000	      2.49527469	      1.43762221	     -3.05957453	      4.17299352	     -6.59564354	      7.76339813	     19.84448088	     74.73871004	      0.03262127	     -9.20901744	     14.98483872	     15.88942811	     59.51703383
      0.06666670	     -4.51953116	     -1.37907210	      6.41630534	     -1.89325692	      0.95287739	      0.22042146	      0.20200879	     -0.08684093	     -9.49093201	      0.00000000	      6.16018841	     -0.19843203	      0.00000000	      3.45743313	     -3.69403861	    -30.57653402	      0.00000000	      3.52671249	      3.75477337	      0.00000000	      2.55178154	      1.44764128	     -3.05099298	      4.19784595	     -6.58686941	      7.70804494	     19.88308670	     74.71985703	      0.05706374	     -9.34488859	     14.92580239	     15.87214608	     59.50978218
      0.08333330	     -4.65483115	     -1.19764669	      6.11110252	     -1.89307921	      0.95282094	      0.22079748	      0.29800145	     -0.28155353	    -10.01472453	      0.00000000	      7.19762955	      1.81834608	      0.00000000	      3.50826619	     -3.54354571	    -32.01676117	      0.00000000	      3.90713234	      5.96664404	      0.00000000	      2.87248791	      1.27565576	     -2.60777148	      3.78989197	     -6.40590003	      6.25854106	     20.24601403	     74.06766823	      0.15630201	     -9.23471945	     13.27405475	     15.85964758	     59.07818618
      0.10000000	     -4.66133153	     -1.12482375	      6.02008452	     -1.89362534	      0.95263822	      0.22093146	      0.30842679	     -0.36927366	    -10.02157335	      0.00000000	      7.23027098	      1.82819855	      0.00000000	      3.50500333	     -3.46633262	    -32.02966549	      0.00000000	      3.87214110	      5.98290591	      0.00000000	      2.88275314	      1.36247046	     -2.62309392	      3.84935625	     -6.38285731	      6.24708242	     20.27042498	     74.06004641	      0.24688378	     -9.22743908	     13.25047118	     15.88516483	     59.07165090
      0.11666670	     -4.66374992	     -0.98734654	      5.95660887	     -1.89386452	      0.95275384	      0.22100012	      0.31015713	     -0.53309527	    -10.02704087	      0.00000000	      7.29372062	      1.88500888	      0.00000000	      3.48172539	     -3.29855621	    -32.11537817	      0.00000000	      3.75191979	      6.02760959	      0.00000000	      2.89786572	      1.39855017	     -2.59770662	      4.05150081	     -6.37355141	      6.22220101	     20.33565379	     74.04352962	      0.40902691	     -9.13644297	     13.20050361	     15.94184514	     59.05334749
      0.13333330	     -4.04486973	     -0.78330832	      5.75760683	     -1.89357052	      0.95376011	      0.22155285	     -0.35053675	     -0.68471729	    -10.40082052	      0.00000000	      7.73752591	      3.11072848	      0.00000000	      2.72469417	     -3.17885986	    -33.17364433	      0.00000000	      3.50167768	      6.96433995	      0.00000000	      1.89463876	      1.23139376	     -2.18514566	      4.23604492	     -6.38752033	      5.80657614	     20.42780694	     73.64081699	      0.76747548	     -8.89150669	     11.75630377	     15.99955861	     58.48955434
      0.15000000	     -4.06365037	     -0.76536848	      5.76571603	     -1.89298352	      0.95454729	      0.22181044	     -0.33886955	     -0.68781423	    -10.40485589	      0.00000000	      7.73431265	      3.11061496	      0.00000000	      2.69463466	     -3.18330753	    -33.17622933	      0.00000000	      3.49489295	      6.96593295	      0.00000000	      1.90174106	      1.23678452	     -2.18858720	      4.24128810	     -6.38806188	      5.80586836	     20.43048413	     73.64000116	      0.77554554	     -8.88890398	     11.75358373	     16.00247206	     58.48854991
      0.16666670	     -3.76005773	     -0.59955279	      5.76921085	     -1.89298154	      0.95662610	      0.22179275	     -0.70059035	     -0.84612311	    -10.95820104	      0.00000000	      7.84526457	      4.00501388	      0.00000000	      2.33527145	     -3.06486232	    -33.89892768	      0.00000000	      2.89670533	      7.75400423	      0.00000000	      1.58103717	      1.20571466	     -2.42077147	      4.42008005	     -6.35765365	      5.58939957	     20.85162974	     73.16300892	      0.80075523	     -8.62612880	      9.99957069	     16.06147487	     57.80642490
      0.18333330	     -3.76692785	     -0.59033209	      5.76655831	     -1.89309057	      0.95738837	      0.22160888	     -0.70561261	     -0.84688305	    -10.95913409	      0.00000000	      7.84368266	      4.00500329	      0.00000000	      2.33712660	     -3.07376227	    -33.89914776	      0.00000000	      2.89623757	      7.75409716	      0.00000000	      1.58194213	      1.20626862	     -2.42160198	      4.41981741	     -6.35835329	      5.58932176	     20.85146366	     73.16286791	      0.80191300	     -8.62582929	      9.99914895	     16.06204479	     57.80628562
